<svg xmlns="http://www.w3.org/2000/svg" viewBox="0 0 32 32">
  <defs>
    <linearGradient id="aurora" x1="0%" y1="0%" x2="100%" y2="100%">
      <stop offset="0%" style="stop-color:#00ff88;stop-opacity:1" />
      <stop offset="50%" style="stop-color:#00aaff;stop-opacity:1" />
      <stop offset="100%" style="stop-color:#aa00ff;stop-opacity:1" />
    </linearGradient>
    <linearGradient id="sky" x1="0%" y1="0%" x2="0%" y2="100%">
      <stop offset="0%" style="stop-color:#0a0a1a;stop-opacity:1" />
      <stop offset="100%" style="stop-color:#1a1a2e;stop-opacity:1" />
    </linearGradient>
  </defs>
  <!-- Dark night sky background -->
  <rect width="32" height="32" rx="6" fill="url(#sky)"/>
  <!-- Aurora waves -->
  <path d="M0 20 Q8 12 16 16 Q24 20 32 14 L32 24 Q24 20 16 22 Q8 24 0 20 Z" fill="url(#aurora)" opacity="0.8"/>
  <path d="M0 16 Q8 8 16 12 Q24 16 32 10 L32 20 Q24 14 16 18 Q8 22 0 16 Z" fill="url(#aurora)" opacity="0.6"/>
  <path d="M0 12 Q8 4 16 8 Q24 12 32 6 L32 16 Q24 10 16 14 Q8 18 0 12 Z" fill="url(#aurora)" opacity="0.4"/>
  <!-- Stars -->
  <circle cx="6" cy="6" r="0.8" fill="#fff"/>
  <circle cx="26" cy="4" r="0.6" fill="#fff"/>
  <circle cx="14" cy="3" r="0.5" fill="#fff"/>
  <circle cx="22" cy="8" r="0.4" fill="#fff"/>
  <circle cx="4" cy="12" r="0.5" fill="#fff"/>
  <circle cx="28" cy="10" r="0.3" fill="#fff"/>
</svg>
